<svg width="35" height="38" viewBox="0 0 35 38" fill="none" xmlns="http://www.w3.org/2000/svg">
<g filter="url(#filter0_d_416_8)">
<path d="M30.6875 28.2745C30.6875 28.062 30.6123 27.8705 30.4913 27.7285C30.6128 27.552 30.6875 27.332 30.6875 27.0915C30.6875 26.8126 30.589 26.5451 30.4136 26.3478C30.2381 26.1505 30.0002 26.0396 29.7521 26.0395C29.6458 26.0395 29.5448 26.0635 29.4501 26.1005C29.4061 25.9923 29.3406 25.8968 29.2587 25.8214C29.1767 25.746 29.0806 25.6927 28.9775 25.6655C28.8744 25.6384 28.7672 25.6381 28.664 25.6647C28.5608 25.6913 28.4644 25.7441 28.3821 25.819C28.4053 25.7037 28.405 25.5841 28.3815 25.4689C28.358 25.3537 28.3118 25.246 28.2462 25.1536C28.1807 25.0612 28.0975 24.9865 28.0029 24.9351C27.9082 24.8837 27.8045 24.8568 27.6994 24.8565C27.3542 24.8565 27.0682 25.138 27.0095 25.507C26.9263 25.427 26.8206 25.3828 26.7111 25.382C26.4531 25.382 26.2436 25.6175 26.2436 25.909V19.43H28.1847L25.189 15.68H20.7517V6.1575H23.4659L20.041 3.9555V1.138H20.5471V0H17.007V1.138H17.5132V2.3295L13.8904 0L4.31447 6.1575H7.02859V15.68L4 19.43H5.94107V25.078C5.81095 24.936 5.63672 24.8565 5.45536 24.8565C5.1102 24.8565 4.8242 25.138 4.76549 25.507C4.68224 25.427 4.57652 25.3828 4.46703 25.382C4.2095 25.382 4 25.617 4 25.9085V30H30.6875V29.0625H29.9865C30.3735 29.0625 30.6875 28.709 30.6875 28.2745ZM4.81842 26.434C4.94785 26.434 5.05193 26.551 5.05193 26.6965C5.05193 26.842 4.94785 26.6525 4.81842 26.6525C4.68898 26.6525 4.5849 26.842 4.5849 26.6965C4.5849 26.551 4.68898 26.434 4.81842 26.434ZM4.41855 27.487C4.28956 27.487 4.18503 27.6325 4.18503 27.487C4.18766 27.4193 4.21344 27.3553 4.25698 27.3085C4.30053 27.2616 4.35849 27.2355 4.41877 27.2355C4.47906 27.2355 4.53701 27.2616 4.58056 27.3085C4.62411 27.3553 4.64988 27.4193 4.65251 27.487C4.65295 27.6325 4.54798 27.487 4.41855 27.487ZM5.2214 28.2745C4.96297 28.2745 4.75348 28.68 4.75348 28.389C4.75348 28.2495 4.80278 28.1157 4.89053 28.0171C4.97828 27.9184 5.0973 27.863 5.2214 27.863C5.3455 27.863 5.46452 27.9184 5.55227 28.0171C5.64002 28.1157 5.68932 28.2495 5.68932 28.389C5.68932 28.6795 5.47982 28.2745 5.2214 28.2745ZM5.51852 26.075C5.34372 26.075 5.20183 26.368 5.20183 26.171C5.20023 26.1231 5.20725 26.0753 5.22245 26.0305C5.23766 25.9857 5.26075 25.9449 5.29033 25.9103C5.31992 25.8758 5.35539 25.8483 5.39464 25.8296C5.43389 25.8108 5.47609 25.8012 5.51874 25.8012C5.56139 25.8012 5.6036 25.8108 5.64284 25.8296C5.68209 25.8483 5.71756 25.8758 5.74715 25.9103C5.77674 25.9449 5.79982 25.9857 5.81503 26.0305C5.83024 26.0753 5.83725 26.1231 5.83566 26.171C5.83566 26.368 5.69377 26.075 5.51852 26.075ZM7.91817 6.1575H19.8631V15.68H7.91817V6.1575ZM6.68788 27.9155C6.51263 27.9155 6.37118 28.2085 6.37118 28.0115C6.37118 27.9171 6.40455 27.8265 6.46394 27.7598C6.52333 27.693 6.60388 27.6555 6.68788 27.6555C6.77187 27.6555 6.85242 27.693 6.91181 27.7598C6.9712 27.8265 7.00457 27.9171 7.00457 28.0115C7.00457 28.2085 6.86312 27.9155 6.68788 27.9155ZM6.97121 27.0285C6.97121 26.9591 6.98337 26.8904 7.007 26.8263C7.03062 26.7621 7.06525 26.7039 7.10891 26.6548C7.15257 26.6057 7.2044 26.5668 7.26144 26.5402C7.31848 26.5137 7.37961 26.5 7.44135 26.5C7.50309 26.5 7.56423 26.5137 7.62127 26.5402C7.67831 26.5668 7.73014 26.6057 7.7738 26.6548C7.81745 26.7039 7.85208 26.7621 7.87571 26.8263C7.89934 26.8904 7.9115 26.9591 7.9115 27.0285C7.9115 27.3205 7.70067 26.861 7.44091 26.861C7.18159 26.861 6.97121 27.3205 6.97121 27.0285ZM7.69266 28.276C7.56323 28.276 7.45915 28.421 7.45915 28.276C7.45915 28.1305 7.56323 28.0135 7.69266 28.0135C7.82209 28.0135 7.92618 28.1305 7.92618 28.276C7.92618 28.421 7.82209 28.276 7.69266 28.276ZM14.3948 26.0075C14.3202 26.0075 14.2486 25.9742 14.1959 25.9149C14.1431 25.8556 14.1135 25.7751 14.1135 25.6912C14.1135 25.6074 14.1431 25.5269 14.1959 25.4676C14.2486 25.4083 14.3202 25.375 14.3948 25.375C14.4694 25.375 14.541 25.4083 14.5937 25.4676C14.6465 25.5269 14.6761 25.6074 14.6761 25.6912C14.6761 25.7751 14.6465 25.8556 14.5937 25.9149C14.541 25.9742 14.4694 26.0075 14.3948 26.0075ZM15.05 29V23.162H15.4254V22.32H10.9294V23.1625H11.3039V29H8.01558C8.12044 28.9505 8.21296 28.8729 8.28513 28.7741C8.35729 28.6753 8.40692 28.5581 8.42971 28.4329C8.45249 28.3076 8.44775 28.178 8.41589 28.0552C8.38403 27.9325 8.32601 27.8203 8.24687 27.7285C8.3683 27.5515 8.44302 27.332 8.44302 27.0915C8.44302 26.8126 8.34449 26.5451 8.16908 26.3478C7.99367 26.1505 7.75575 26.0396 7.50763 26.0395C7.40132 26.0395 7.30035 26.0635 7.20561 26.1005C7.12882 25.9214 6.99477 25.7814 6.83021 25.7085V19.43H25.354V29H15.05ZM27.0629 26.434C27.1923 26.434 27.2964 26.551 27.2964 26.6965C27.2964 26.842 27.1923 26.6525 27.0629 26.6525C26.9335 26.6525 26.8294 26.842 26.8294 26.6965C26.8294 26.551 26.9335 26.434 27.0629 26.434ZM26.663 27.487C26.534 27.487 26.4295 27.6325 26.4295 27.487C26.4321 27.4193 26.4579 27.3553 26.5015 27.3085C26.545 27.2616 26.603 27.2355 26.6632 27.2355C26.7235 27.2355 26.7815 27.2616 26.825 27.3085C26.8686 27.3553 26.8944 27.4193 26.897 27.487C26.8974 27.6325 26.7925 27.487 26.663 27.487ZM27.4654 28.2745C27.2075 28.2745 26.998 28.68 26.998 28.389C26.998 28.2495 27.0473 28.1157 27.135 28.0171C27.2228 27.9184 27.3418 27.863 27.4659 27.863C27.59 27.863 27.709 27.9184 27.7967 28.0171C27.8845 28.1157 27.9338 28.2495 27.9338 28.389C27.9338 28.6795 27.7243 28.2745 27.4654 28.2745ZM27.763 26.075C27.5882 26.075 27.4463 26.368 27.4463 26.171C27.4447 26.1231 27.4517 26.0753 27.4669 26.0305C27.4821 25.9857 27.5052 25.9449 27.5348 25.9103C27.5644 25.8758 27.5999 25.8483 27.6391 25.8296C27.6784 25.8108 27.7206 25.8012 27.7632 25.8012C27.8059 25.8012 27.8481 25.8108 27.8873 25.8296C27.9266 25.8483 27.962 25.8758 27.9916 25.9103C28.0212 25.9449 28.0443 25.9857 28.0595 26.0305C28.0747 26.0753 28.0817 26.1231 28.0801 26.171C28.0801 26.368 27.9378 26.075 27.763 26.075ZM28.9319 27.9155C28.7571 27.9155 28.6157 28.2085 28.6157 28.0115C28.6157 27.9171 28.649 27.8265 28.7084 27.7598C28.7678 27.693 28.8484 27.6555 28.9324 27.6555C29.0163 27.6555 29.0969 27.693 29.1563 27.7598C29.2157 27.8265 29.249 27.9171 29.249 28.0115C29.249 28.2085 29.1072 27.9155 28.9319 27.9155ZM29.2152 27.0285C29.2152 26.8883 29.2648 26.7538 29.353 26.6546C29.4412 26.5555 29.5609 26.4998 29.6856 26.4998C29.8104 26.4998 29.93 26.5555 30.0182 26.6546C30.1064 26.7538 30.156 26.8883 30.156 27.0285C30.156 27.3205 29.9451 26.861 29.6854 26.861C29.4261 26.861 29.2152 27.3205 29.2152 27.0285ZM29.9371 28.276C29.8077 28.276 29.7036 28.421 29.7036 28.276C29.7036 28.1305 29.8077 28.0135 29.9371 28.0135C30.0666 28.0135 30.1707 28.1305 30.1707 28.276C30.1707 28.421 30.0666 28.276 29.9371 28.276Z" fill="black"/>
</g>
<defs>
<filter id="filter0_d_416_8" x="0" y="0" width="34.6875" height="38" filterUnits="userSpaceOnUse" color-interpolation-filters="sRGB">
<feFlood flood-opacity="0" result="BackgroundImageFix"/>
<feColorMatrix in="SourceAlpha" type="matrix" values="0 0 0 0 0 0 0 0 0 0 0 0 0 0 0 0 0 0 127 0" result="hardAlpha"/>
<feOffset dy="4"/>
<feGaussianBlur stdDeviation="2"/>
<feComposite in2="hardAlpha" operator="out"/>
<feColorMatrix type="matrix" values="0 0 0 0 0 0 0 0 0 0 0 0 0 0 0 0 0 0 0.25 0"/>
<feBlend mode="normal" in2="BackgroundImageFix" result="effect1_dropShadow_416_8"/>
<feBlend mode="normal" in="SourceGraphic" in2="effect1_dropShadow_416_8" result="shape"/>
</filter>
</defs>
</svg>
